<svg width="14" height="15" viewBox="0 0 14 15" fill="none" xmlns="http://www.w3.org/2000/svg">
<g clip-path="url(#clip0_1_207)">
<g clip-path="url(#clip1_1_207)">
<path d="M13.5598 5.30547C13.6473 5.54336 13.5734 5.80859 13.3848 5.97813L12.2008 7.05547C12.2309 7.28242 12.2473 7.51484 12.2473 7.75C12.2473 7.98516 12.2309 8.21758 12.2008 8.44453L13.3848 9.52187C13.5734 9.69141 13.6473 9.95664 13.5598 10.1945C13.4395 10.5199 13.2945 10.8316 13.1277 11.1324L12.9992 11.3539C12.8188 11.6547 12.6164 11.9391 12.3949 12.207C12.2336 12.4039 11.9656 12.4695 11.725 12.393L10.202 11.909C9.83555 12.1906 9.43086 12.4258 8.99883 12.6035L8.65703 14.1648C8.60234 14.4137 8.41094 14.6105 8.15938 14.6516C7.78203 14.7145 7.39375 14.7473 6.99727 14.7473C6.60078 14.7473 6.2125 14.7145 5.83516 14.6516C5.58359 14.6105 5.39219 14.4137 5.3375 14.1648L4.9957 12.6035C4.56367 12.4258 4.15898 12.1906 3.79258 11.909L2.27227 12.3957C2.03164 12.4723 1.76367 12.4039 1.60234 12.2098C1.38086 11.9418 1.17852 11.6574 0.998047 11.3566L0.869531 11.1352C0.702735 10.8344 0.557813 10.5227 0.4375 10.1973C0.35 9.95938 0.423828 9.69414 0.6125 9.52461L1.79648 8.44727C1.76641 8.21758 1.75 7.98516 1.75 7.75C1.75 7.51484 1.76641 7.28242 1.79648 7.05547L0.6125 5.97813C0.423828 5.80859 0.35 5.54336 0.4375 5.30547C0.557813 4.98008 0.702735 4.66836 0.869531 4.36758L0.998047 4.14609C1.17852 3.84531 1.38086 3.56094 1.60234 3.29297C1.76367 3.09609 2.03164 3.03047 2.27227 3.10703L3.79531 3.59102C4.16172 3.30938 4.56641 3.07422 4.99844 2.89648L5.34023 1.33516C5.39492 1.08633 5.58633 0.889453 5.83789 0.848437C6.21523 0.782812 6.60352 0.75 7 0.75C7.39648 0.75 7.78477 0.782813 8.16211 0.845703C8.41367 0.886719 8.60508 1.08359 8.65977 1.33242L9.00156 2.89375C9.43359 3.07148 9.83828 3.30664 10.2047 3.58828L11.7277 3.1043C11.9684 3.02773 12.2363 3.09609 12.3977 3.29023C12.6191 3.5582 12.8215 3.84258 13.002 4.14336L13.1305 4.36484C13.2973 4.66562 13.4422 4.97734 13.5625 5.30273L13.5598 5.30547ZM7 9.9375C7.58016 9.9375 8.13656 9.70703 8.5468 9.2968C8.95703 8.88656 9.1875 8.33016 9.1875 7.75C9.1875 7.16984 8.95703 6.61344 8.5468 6.2032C8.13656 5.79297 7.58016 5.5625 7 5.5625C6.41984 5.5625 5.86344 5.79297 5.4532 6.2032C5.04297 6.61344 4.8125 7.16984 4.8125 7.75C4.8125 8.33016 5.04297 8.88656 5.4532 9.2968C5.86344 9.70703 6.41984 9.9375 7 9.9375Z" fill="#848D97"/>
</g>
</g>
<defs>
<clipPath id="clip0_1_207">
<rect width="14" height="14" fill="white" transform="translate(0 0.75)"/>
</clipPath>
<clipPath id="clip1_1_207">
<path d="M0 0.75H14V14.75H0V0.75Z" fill="white"/>
</clipPath>
</defs>
</svg>
